<?xml version="1.0" encoding="UTF-8" standalone="no"?>
<!-- Created with Inkscape (http://www.inkscape.org/) -->

<svg
   version="1.1"
   id="svg2"
   width="5333.3335"
   height="5333.3335"
   viewBox="0 0 5333.3335 5333.3335"
   sodipodi:docname="frog-6026117.ai"
   xmlns:inkscape="http://www.inkscape.org/namespaces/inkscape"
   xmlns:sodipodi="http://sodipodi.sourceforge.net/DTD/sodipodi-0.dtd"
   xmlns="http://www.w3.org/2000/svg"
   xmlns:svg="http://www.w3.org/2000/svg">
  <defs
     id="defs6">
    <clipPath
       clipPathUnits="userSpaceOnUse"
       id="clipPath18">
      <path
         d="M 0,0 H 4000 V 4000 H 0 Z"
         id="path16" />
    </clipPath>
    <clipPath
       clipPathUnits="userSpaceOnUse"
       id="clipPath26">
      <path
         d="M 695,2000 H 3280 V 572 H 695 Z"
         id="path24" />
    </clipPath>
    <clipPath
       clipPathUnits="userSpaceOnUse"
       id="clipPath44">
      <path
         d="M 0,0 H 4000 V 4000 H 0 Z"
         id="path42" />
    </clipPath>
    <clipPath
       clipPathUnits="userSpaceOnUse"
       id="clipPath64">
      <path
         d="M 1291.92,1977.58 H 2720.79 V 1259.01 H 1291.92 Z"
         id="path62" />
    </clipPath>
    <clipPath
       clipPathUnits="userSpaceOnUse"
       id="clipPath116">
      <path
         d="m 1967.09,1802.98 v 0 0 z"
         id="path114" />
    </clipPath>
    <clipPath
       clipPathUnits="userSpaceOnUse"
       id="clipPath128">
      <path
         d="m 1445.13,1864.18 h 134.79 v -195.87 h -134.79 z"
         id="path126" />
    </clipPath>
    <clipPath
       clipPathUnits="userSpaceOnUse"
       id="clipPath152">
      <path
         d="m 1457.5,2098.06 h 446.51 V 1414.92 H 1457.5 Z"
         id="path150" />
    </clipPath>
    <clipPath
       clipPathUnits="userSpaceOnUse"
       id="clipPath168">
      <path
         d="m 1953.88,1776.73 v 0 0 z"
         id="path166" />
    </clipPath>
    <clipPath
       clipPathUnits="userSpaceOnUse"
       id="clipPath196">
      <path
         d="m 2093.13,2086.7 h 542.78 v -632.57 h -542.78 z"
         id="path194" />
    </clipPath>
    <clipPath
       clipPathUnits="userSpaceOnUse"
       id="clipPath216">
      <path
         d="m 1457.11,1442.12 h 1205.6 V 723.574 h -1205.6 z"
         id="path214" />
    </clipPath>
    <clipPath
       clipPathUnits="userSpaceOnUse"
       id="clipPath272">
      <path
         d="m 1658.63,1955.27 h 705.02 v -700.84 h -705.02 z"
         id="path270" />
    </clipPath>
    <clipPath
       clipPathUnits="userSpaceOnUse"
       id="clipPath296">
      <path
         d="m 2015.09,1124.97 v 0 0 z"
         id="path294" />
    </clipPath>
    <clipPath
       clipPathUnits="userSpaceOnUse"
       id="clipPath308">
      <path
         d="m 2009.66,1124.97 v 0 0 z"
         id="path306" />
    </clipPath>
    <clipPath
       clipPathUnits="userSpaceOnUse"
       id="clipPath340">
      <path
         d="M 1424.05,2788.89 H 2551 V 2044.76 H 1424.05 Z"
         id="path338" />
    </clipPath>
    <clipPath
       clipPathUnits="userSpaceOnUse"
       id="clipPath364">
      <path
         d="m 1543.17,2391.8 h 112.7 v -82.03 h -112.7 z"
         id="path362" />
    </clipPath>
    <clipPath
       clipPathUnits="userSpaceOnUse"
       id="clipPath388">
      <path
         d="m 2372.63,2400.73 h 112.7 v -82.04 h -112.7 z"
         id="path386" />
    </clipPath>
    <clipPath
       clipPathUnits="userSpaceOnUse"
       id="clipPath424">
      <path
         d="m 1441.94,2720.45 h 264.69 v -162.8 h -264.69 z"
         id="path422" />
    </clipPath>
    <clipPath
       clipPathUnits="userSpaceOnUse"
       id="clipPath440">
      <path
         d="m 2281.69,2713.82 h 264.69 v -156.14 h -264.69 z"
         id="path438" />
    </clipPath>
  </defs>
  <sodipodi:namedview
     id="namedview4"
     pagecolor="#ffffff"
     bordercolor="#000000"
     borderopacity="0.25"
     inkscape:showpageshadow="2"
     inkscape:pageopacity="0.0"
     inkscape:pagecheckerboard="0"
     inkscape:deskcolor="#d1d1d1" />
  <g
     id="g8"
     inkscape:groupmode="layer"
     inkscape:label="frog-6026117"
     transform="matrix(1.3333333,0,0,-1.3333333,0,5333.3333)">
    <path
       d="M 0,0 H 4000 V 4000 H 0 Z"
       style="fill:#0091d0;fill-opacity:1;fill-rule:nonzero;stroke:none"
       id="path10" />
    <g
       id="g12">
      <g
         id="g14"
         clip-path="url(#clipPath18)">
        <g
           id="g20">
          <g
             id="g22" />
          <g
             id="g34">
            <g
               clip-path="url(#clipPath26)"
               opacity="0.139999"
               id="g32">
              <g
                 transform="translate(3280,1286)"
                 id="g30">
                <path
                   d="m 0,0 c 0,-394.331 -578.672,-714 -1292.5,-714 -713.828,0 -1292.5,319.669 -1292.5,714 0,394.331 578.672,714 1292.5,714 C -578.672,714 0,394.331 0,0"
                   style="fill:#020202;fill-opacity:1;fill-rule:nonzero;stroke:none"
                   id="path28" />
              </g>
            </g>
          </g>
        </g>
      </g>
    </g>
    <path
       d="m 2033.453,572 h -98.167 v 562.231 h 98.167 z"
       style="fill:#127d49;fill-opacity:1;fill-rule:nonzero;stroke:none"
       id="path36" />
    <g
       id="g38">
      <g
         id="g40"
         clip-path="url(#clipPath44)">
        <g
           id="g46"
           transform="translate(2042.3154,732.626)">
          <path
             d="M 0,0 C -20.132,106.132 -34.34,213.388 -42.536,321.102"
             style="fill:none;stroke:#000000;stroke-width:8.924;stroke-linecap:butt;stroke-linejoin:miter;stroke-miterlimit:10;stroke-dasharray:none;stroke-opacity:1"
             id="path48" />
        </g>
        <g
           id="g50"
           transform="translate(1939.748,714.7891)">
          <path
             d="M 0,0 V 361.435"
             style="fill:none;stroke:#000000;stroke-width:8.924;stroke-linecap:butt;stroke-linejoin:miter;stroke-miterlimit:10;stroke-dasharray:none;stroke-opacity:1"
             id="path52" />
        </g>
        <g
           id="g54"
           transform="translate(2774.1719,1551.4434)">
          <path
             d="m 0,0 c 0,-210.704 -360.599,-381.515 -805.42,-381.515 -444.821,0 -805.419,170.811 -805.419,381.515 0,210.705 360.598,381.515 805.419,381.515 C -360.599,381.515 0,210.705 0,0"
             style="fill:#127d49;fill-opacity:1;fill-rule:nonzero;stroke:none"
             id="path56" />
        </g>
        <g
           id="g58">
          <g
             id="g60" />
          <g
             id="g104">
            <g
               clip-path="url(#clipPath64)"
               opacity="0.309998"
               id="g102">
              <g
                 transform="translate(2197.1572,1614.0225)"
                 id="g68">
                <path
                   d="M 0,0 C 174.489,5.873 348.979,11.745 523.469,17.617"
                   style="fill:none;stroke:#000000;stroke-width:9.717;stroke-linecap:butt;stroke-linejoin:miter;stroke-miterlimit:10;stroke-dasharray:none;stroke-opacity:1"
                   id="path66" />
              </g>
              <g
                 transform="translate(1728.0698,1596.5166)"
                 id="g72">
                <path
                   d="M 0,0 C -135.539,64.182 -283,110.404 -435.335,136.458"
                   style="fill:none;stroke:#000000;stroke-width:9.717;stroke-linecap:butt;stroke-linejoin:miter;stroke-miterlimit:10;stroke-dasharray:none;stroke-opacity:1"
                   id="path70" />
              </g>
              <g
                 transform="translate(2093.3252,1653.1182)"
                 id="g76">
                <path
                   d="m 0,0 c -7.451,9.611 -3.614,23.086 5.27,31.789 8.883,8.703 21.681,13.723 34.101,18.426 28.346,10.733 56.964,21.173 86.822,28.422 90.765,22.036 194.255,15.31 271.646,60.982"
                   style="fill:none;stroke:#000000;stroke-width:9.717;stroke-linecap:butt;stroke-linejoin:miter;stroke-miterlimit:10;stroke-dasharray:none;stroke-opacity:1"
                   id="path74" />
              </g>
              <g
                 transform="translate(1974.895,1584.9102)"
                 id="g80">
                <path
                   d="M 0,0 V 392.67"
                   style="fill:none;stroke:#000000;stroke-width:9.717;stroke-linecap:butt;stroke-linejoin:miter;stroke-miterlimit:10;stroke-dasharray:none;stroke-opacity:1"
                   id="path78" />
              </g>
              <g
                 transform="translate(1860.3525,1589.4883)"
                 id="g84">
                <path
                   d="M 0,0 C -7.693,86.215 -5.553,173.053 6.382,258.923"
                   style="fill:none;stroke:#000000;stroke-width:9.717;stroke-linecap:butt;stroke-linejoin:miter;stroke-miterlimit:10;stroke-dasharray:none;stroke-opacity:1"
                   id="path82" />
              </g>
              <g
                 transform="translate(1981.6475,1259.1133)"
                 id="g88">
                <path
                   d="M 0,0 C -2.337,108.585 -2.695,217.199 -1.072,325.792"
                   style="fill:none;stroke:#000000;stroke-width:9.717;stroke-linecap:butt;stroke-linejoin:miter;stroke-miterlimit:10;stroke-dasharray:none;stroke-opacity:1"
                   id="path86" />
              </g>
              <g
                 transform="translate(1858.5244,1263.6348)"
                 id="g92">
                <path
                   d="M 0,0 V 325.737"
                   style="fill:none;stroke:#000000;stroke-width:9.717;stroke-linecap:butt;stroke-linejoin:miter;stroke-miterlimit:10;stroke-dasharray:none;stroke-opacity:1"
                   id="path90" />
              </g>
              <g
                 transform="translate(2040.7393,1486.1553)"
                 id="g96">
                <path
                   d="m 0,0 c 2.178,4.432 8.639,5.886 14.247,6.681 79.551,11.273 162.861,2.959 237.099,-23.662 30.66,-10.995 59.813,-25.031 91.316,-34.173 31.503,-9.143 66.617,-13.105 97.912,-3.468"
                   style="fill:none;stroke:#000000;stroke-width:9.717;stroke-linecap:butt;stroke-linejoin:miter;stroke-miterlimit:10;stroke-dasharray:none;stroke-opacity:1"
                   id="path94" />
              </g>
              <g
                 transform="translate(1794.0049,1471.5801)"
                 id="g100">
                <path
                   d="m 0,0 c -84.235,36.661 -178.922,56.087 -273.708,56.153 -65.54,0.046 -130.559,-8.981 -195.224,-17.984"
                   style="fill:none;stroke:#000000;stroke-width:9.717;stroke-linecap:butt;stroke-linejoin:miter;stroke-miterlimit:10;stroke-dasharray:none;stroke-opacity:1"
                   id="path98" />
              </g>
            </g>
          </g>
        </g>
        <g
           id="g106"
           transform="translate(2494.2998,1544.2734)">
          <path
             d="m 0,0 c 1.714,-1.052 48.219,8.162 72.032,12.587 98.888,18.375 180.822,12.606 183.007,-12.886 2.185,-25.492 -76.208,-61.053 -175.097,-79.427 -16.811,-3.124 -33.071,-5.495 -48.594,-7.245 -0.124,-0.5 -0.283,-0.999 -0.413,-1.498 8.352,-7.851 16.747,-16.218 25.079,-25.087 64.118,-68.253 99.939,-138.761 80.007,-157.486 -19.932,-18.725 -88.068,21.427 -152.186,89.68 -5.268,5.607 -10.266,11.222 -15.136,16.829 -10.207,-5.279 -20.785,-8.924 -31.319,-10.853 -0.36,-10.857 -0.98,-22.033 -1.936,-33.503 -8.216,-98.575 -35.976,-178.923 -62.002,-179.462 -26.025,-0.54 -40.461,78.934 -32.242,177.508 2.057,24.67 5.397,48.052 9.572,69.467 z"
             style="fill:#98c12a;fill-opacity:1;fill-rule:nonzero;stroke:none"
             id="path108" />
        </g>
        <g
           id="g110">
          <g
             id="g112" />
          <g
             id="g120">
            <g
               clip-path="url(#clipPath116)"
               opacity="0.0899963"
               id="g118" />
          </g>
        </g>
        <g
           id="g122">
          <g
             id="g124" />
          <g
             id="g136">
            <g
               clip-path="url(#clipPath128)"
               opacity="0.0899963"
               id="g134">
              <g
                 transform="translate(1445.1304,1864.1826)"
                 id="g132">
                <path
                   d="M 0,0 C 49.251,-112.475 134.787,-195.875 134.787,-195.875"
                   style="fill:#404040;fill-opacity:1;fill-rule:nonzero;stroke:none"
                   id="path130" />
              </g>
            </g>
          </g>
        </g>
        <g
           id="g138"
           transform="translate(1539.2988,1422.5801)">
          <path
             d="m 0,0 c 0,0 -359.608,784.455 -8.554,633.481 0,0 253.696,-98.593 293.157,-635.007 z"
             style="fill:#98c12a;fill-opacity:1;fill-rule:nonzero;stroke:none"
             id="path140" />
        </g>
        <g
           id="g142"
           transform="translate(1539.2988,1422.5801)">
          <path
             d="m 0,0 c 0,0 -359.608,784.455 -8.554,633.481 0,0 253.696,-98.593 293.157,-635.007 z"
             style="fill:none;stroke:#98c12a;stroke-width:53.546;stroke-linecap:butt;stroke-linejoin:miter;stroke-miterlimit:10;stroke-dasharray:none;stroke-opacity:1"
             id="path144" />
        </g>
        <g
           id="g146">
          <g
             id="g148" />
          <g
             id="g160">
            <g
               clip-path="url(#clipPath152)"
               opacity="0.0899963"
               id="g158">
              <g
                 transform="translate(1904.0068,1531.5557)"
                 id="g156">
                <path
                   d="m 0,0 -208.35,41.153 20.215,310.584 c 0,0 42.897,-226.273 0,0 l -84.013,125.522 c 0,0 -62.47,89.243 -169.562,89.243 l -3.06,-54.321 c -24.412,-453.624 216.96,-628.819 216.96,-628.819 L 0,0"
                   style="fill:#404040;fill-opacity:1;fill-rule:nonzero;stroke:none"
                   id="path154" />
              </g>
            </g>
          </g>
        </g>
        <g
           id="g162">
          <g
             id="g164" />
          <g
             id="g172">
            <g
               clip-path="url(#clipPath168)"
               opacity="0.0899963"
               id="g170" />
          </g>
        </g>
        <g
           id="g174"
           transform="translate(2496.5625,1420.543)">
          <path
             d="m 0,0 c 0,0 402.548,763.312 43.663,632.033 0,0 -258.772,-84.377 -327.912,-617.778 z"
             style="fill:#98c12a;fill-opacity:1;fill-rule:nonzero;stroke:none"
             id="path176" />
        </g>
        <g
           id="g178"
           transform="translate(2496.5625,1420.543)">
          <path
             d="m 0,0 c 0,0 402.548,763.312 43.663,632.033 0,0 -258.772,-84.377 -327.912,-617.778 z"
             style="fill:none;stroke:#98c12a;stroke-width:53.546;stroke-linecap:butt;stroke-linejoin:miter;stroke-miterlimit:10;stroke-dasharray:none;stroke-opacity:1"
             id="path180" />
        </g>
        <g
           id="g182"
           transform="translate(2167.3184,2138.6152)">
          <path
             d="m 0,0 v -85.834 -476.158 c 0.529,-1.941 1.049,-3.884 1.413,-5.871 19.146,-9.702 39.319,-21.196 59.705,-34.275 84.654,-54.315 140.422,-114.619 124.56,-134.695 -15.863,-20.075 -97.346,7.682 -181.999,61.998 -14.393,9.233 -27.866,18.639 -40.379,27.992 -0.433,-0.28 -0.89,-0.535 -1.327,-0.809 0.712,-11.442 1.102,-23.287 1.102,-35.456 0,-93.647 -22.169,-169.562 -49.516,-169.562 -27.348,0 -49.517,75.915 -49.517,169.562 0,7.693 0.202,15.208 0.491,22.629 -11.054,3.141 -21.259,7.727 -30.258,13.534 -7.695,-7.666 -15.798,-15.388 -24.349,-23.093 -73.481,-66.22 -148.727,-105.774 -168.064,-88.347 -19.338,17.426 24.555,85.233 98.037,151.45 18.391,16.573 36.834,31.328 54.54,44.077 0,0 255.703,357.992 -13.189,627.557 l 43.458,144.625 c 0,0 73.929,54.341 175.292,-209.324"
             style="fill:#98c12a;fill-opacity:1;fill-rule:nonzero;stroke:none"
             id="path184" />
        </g>
        <g
           id="g186"
           transform="translate(1524.6606,1537.0449)">
          <path
             d="m 0,0 c -1.853,-0.783 -46.46,15.27 -69.346,23.2 -95.036,32.933 -176.914,39.461 -182.88,14.581 -5.966,-24.881 66.239,-71.746 161.276,-104.677 16.157,-5.599 31.881,-10.372 46.969,-14.419 0.047,-0.513 0.13,-1.03 0.185,-1.543 -9.431,-6.517 -18.981,-13.537 -28.544,-21.062 -73.59,-57.915 -119.535,-122.286 -102.622,-143.776 16.913,-21.491 90.279,8.038 163.869,65.954 6.046,4.758 11.826,9.563 17.479,14.381 9.304,-6.745 19.219,-11.927 29.347,-15.408 -1.264,-10.789 -2.321,-21.932 -3.087,-33.417 -6.593,-98.696 8.86,-182.288 34.514,-186.707 25.653,-4.419 51.792,72.009 58.382,170.706 1.649,24.7 1.837,48.319 0.906,70.117 z"
             style="fill:#98c12a;fill-opacity:1;fill-rule:nonzero;stroke:none"
             id="path188" />
        </g>
        <g
           id="g190">
          <g
             id="g192" />
          <g
             id="g204">
            <g
               clip-path="url(#clipPath196)"
               opacity="0.0899963"
               id="g202">
              <g
                 transform="translate(2093.1318,1612.5547)"
                 id="g200">
                <path
                   d="m 0,0 212.375,0.151 40.131,308.644 c 0,0 -85.777,-213.733 0,0 l 106.668,106.938 c 0,0 78.525,75.503 183.602,54.826 l -7.486,-53.89 C 471.659,-33.133 201.003,-158.428 201.003,-158.428 L 0,0"
                   style="fill:#404040;fill-opacity:1;fill-rule:nonzero;stroke:none"
                   id="path198" />
              </g>
            </g>
          </g>
        </g>
        <g
           id="g206"
           transform="translate(2671.542,1096.3037)">
          <path
             d="m 0,0 c 0,-210.705 -307.657,-381.515 -687.172,-381.515 -379.515,0 -687.173,170.81 -687.173,381.515 0,210.704 307.658,381.515 687.173,381.515 C -307.657,381.515 0,210.704 0,0"
             style="fill:#127d49;fill-opacity:1;fill-rule:nonzero;stroke:none"
             id="path208" />
        </g>
        <g
           id="g210">
          <g
             id="g212" />
          <g
             id="g256">
            <g
               clip-path="url(#clipPath216)"
               opacity="0.309998"
               id="g254">
              <g
                 transform="translate(2220.9482,1078.5645)"
                 id="g220">
                <path
                   d="M 0,0 C 147.195,5.872 294.391,11.744 441.585,17.616"
                   style="fill:none;stroke:#000000;stroke-width:8.924;stroke-linecap:butt;stroke-linejoin:miter;stroke-miterlimit:10;stroke-dasharray:none;stroke-opacity:1"
                   id="path218" />
              </g>
              <g
                 transform="translate(1825.2373,1061.0576)"
                 id="g224">
                <path
                   d="M 0,0 C -114.337,64.182 -238.732,110.404 -367.237,136.458"
                   style="fill:none;stroke:#000000;stroke-width:8.924;stroke-linecap:butt;stroke-linejoin:miter;stroke-miterlimit:10;stroke-dasharray:none;stroke-opacity:1"
                   id="path222" />
              </g>
              <g
                 transform="translate(2133.3574,1117.6592)"
                 id="g228">
                <path
                   d="m 0,0 c -6.285,9.611 -3.048,23.086 4.446,31.789 7.494,8.703 18.29,13.723 28.768,18.426 23.911,10.733 48.053,21.173 73.24,28.422 76.567,22.036 163.869,15.31 229.154,60.982"
                   style="fill:none;stroke:#000000;stroke-width:8.924;stroke-linecap:butt;stroke-linejoin:miter;stroke-miterlimit:10;stroke-dasharray:none;stroke-opacity:1"
                   id="path226" />
              </g>
              <g
                 transform="translate(2033.4531,1049.4512)"
                 id="g232">
                <path
                   d="M 0,0 V 392.67"
                   style="fill:none;stroke:#000000;stroke-width:8.924;stroke-linecap:butt;stroke-linejoin:miter;stroke-miterlimit:10;stroke-dasharray:none;stroke-opacity:1"
                   id="path230" />
              </g>
              <g
                 transform="translate(1936.8276,1054.0293)"
                 id="g236">
                <path
                   d="M 0,0 C -6.489,86.215 -4.684,173.053 5.384,258.923"
                   style="fill:none;stroke:#000000;stroke-width:8.924;stroke-linecap:butt;stroke-linejoin:miter;stroke-miterlimit:10;stroke-dasharray:none;stroke-opacity:1"
                   id="path234" />
              </g>
              <g
                 transform="translate(2039.1494,723.6543)"
                 id="g240">
                <path
                   d="M 0,0 C -1.972,108.585 -2.273,217.199 -0.904,325.792"
                   style="fill:none;stroke:#000000;stroke-width:8.924;stroke-linecap:butt;stroke-linejoin:miter;stroke-miterlimit:10;stroke-dasharray:none;stroke-opacity:1"
                   id="path238" />
              </g>
              <g
                 transform="translate(1935.2856,728.1758)"
                 id="g244">
                <path
                   d="M 0,0 V 325.737"
                   style="fill:none;stroke:#000000;stroke-width:8.924;stroke-linecap:butt;stroke-linejoin:miter;stroke-miterlimit:10;stroke-dasharray:none;stroke-opacity:1"
                   id="path242" />
              </g>
              <g
                 transform="translate(2088.998,950.6963)"
                 id="g248">
                <path
                   d="m 0,0 c 1.837,4.432 7.287,5.886 12.018,6.681 67.107,11.273 137.386,2.959 200.01,-23.662 25.865,-10.995 50.458,-25.031 77.034,-34.173 26.575,-9.143 56.196,-13.105 82.596,-3.468"
                   style="fill:none;stroke:#000000;stroke-width:8.924;stroke-linecap:butt;stroke-linejoin:miter;stroke-miterlimit:10;stroke-dasharray:none;stroke-opacity:1"
                   id="path246" />
              </g>
              <g
                 transform="translate(1880.8589,936.1211)"
                 id="g252">
                <path
                   d="M 0,0 C -71.059,36.661 -150.935,56.087 -230.893,56.153 -286.182,56.199 -341.029,47.172 -395.58,38.169"
                   style="fill:none;stroke:#000000;stroke-width:8.924;stroke-linecap:butt;stroke-linejoin:miter;stroke-miterlimit:10;stroke-dasharray:none;stroke-opacity:1"
                   id="path250" />
              </g>
            </g>
          </g>
        </g>
        <g
           id="g258"
           transform="translate(2439.5098,1721.0059)">
          <path
             d="m 0,0 c 0,-240.277 -198.779,-435.061 -443.985,-435.061 -245.206,0 -443.985,194.784 -443.985,435.061 0,240.277 198.779,435.06 443.985,435.06 C -198.779,435.06 0,240.277 0,0"
             style="fill:#98c12a;fill-opacity:1;fill-rule:nonzero;stroke:none"
             id="path260" />
        </g>
        <g
           id="g262"
           transform="translate(2439.5098,1721.0059)">
          <path
             d="m 0,0 c 0,-240.277 -198.779,-435.061 -443.985,-435.061 -245.206,0 -443.985,194.784 -443.985,435.061 0,240.277 198.779,435.06 443.985,435.06 C -198.779,435.06 0,240.277 0,0 Z"
             style="fill:none;stroke:#98c12a;stroke-width:55.386;stroke-linecap:butt;stroke-linejoin:miter;stroke-miterlimit:10;stroke-dasharray:none;stroke-opacity:1"
             id="path264" />
        </g>
        <g
           id="g266">
          <g
             id="g268" />
          <g
             id="g280">
            <g
               clip-path="url(#clipPath272)"
               opacity="0.0899963"
               id="g278">
              <g
                 transform="translate(1668.2617,1378.2461)"
                 id="g276">
                <path
                   d="m 0,0 c -9.154,45.538 -9.63,98.03 -9.63,145.469 0,238.179 157.955,431.553 352.511,431.553 194.556,0 352.511,-193.374 352.511,-431.553 0,-63.156 -11.207,-123.092 -31.156,-177.178 l -6.505,-7.172 c -86.47,-53.63 -190.185,-84.933 -301.762,-84.933 -117.39,0 -226.078,34.647 -315.132,93.5 L 7.179,-10.979 Z"
                   style="fill:#404040;fill-opacity:1;fill-rule:nonzero;stroke:none"
                   id="path274" />
              </g>
            </g>
          </g>
        </g>
        <g
           id="g282"
           transform="translate(1600.3198,1870.8857)">
          <path
             d="m 0,0 v -85.835 -476.157 c -0.529,-1.941 -1.049,-3.884 -1.413,-5.871 -19.145,-9.702 -39.319,-21.196 -59.705,-34.275 -84.654,-54.315 -140.422,-114.619 -124.56,-134.694 15.862,-20.076 97.345,7.681 181.999,61.997 14.392,9.233 27.867,18.639 40.379,27.992 0.433,-0.28 0.889,-0.535 1.327,-0.809 -0.712,-11.442 -1.102,-23.287 -1.102,-35.456 0,-93.647 22.168,-169.562 49.516,-169.562 27.348,0 49.517,75.915 49.517,169.562 0,7.693 -0.203,15.208 -0.491,22.629 11.054,3.141 21.258,7.727 30.257,13.534 7.696,-7.666 15.799,-15.388 24.35,-23.093 73.481,-66.219 148.727,-105.774 168.064,-88.347 19.338,17.426 -24.555,85.233 -98.038,151.45 -18.39,16.573 -36.833,31.328 -54.539,44.077 0,0 -255.703,357.992 13.189,627.557 L 175.291,209.324 C 175.291,209.324 101.363,263.665 0,0"
             style="fill:#98c12a;fill-opacity:1;fill-rule:nonzero;stroke:none"
             id="path284" />
        </g>
        <g
           id="g286"
           transform="translate(2399.3506,1870.8857)">
          <path
             d="m 0,0 v -85.835 -476.157 c 0.529,-1.941 1.049,-3.884 1.413,-5.871 19.146,-9.702 39.319,-21.196 59.705,-34.275 84.654,-54.315 140.422,-114.619 124.56,-134.694 -15.863,-20.076 -97.346,7.681 -181.999,61.997 -14.393,9.233 -27.866,18.639 -40.379,27.992 -0.433,-0.28 -0.89,-0.535 -1.327,-0.809 0.712,-11.442 1.102,-23.287 1.102,-35.456 0,-93.647 -22.169,-169.562 -49.516,-169.562 -27.348,0 -49.517,75.915 -49.517,169.562 0,7.693 0.202,15.208 0.491,22.629 -11.054,3.141 -21.259,7.727 -30.258,13.534 -7.695,-7.666 -15.798,-15.388 -24.349,-23.093 -73.482,-66.219 -148.727,-105.774 -168.065,-88.347 -19.337,17.426 24.556,85.233 98.038,151.45 18.39,16.573 36.834,31.328 54.539,44.077 0,0 255.704,357.992 -13.189,627.557 l 43.46,144.625 c 0,0 73.928,54.341 175.291,-209.324"
             style="fill:#98c12a;fill-opacity:1;fill-rule:nonzero;stroke:none"
             id="path288" />
        </g>
        <g
           id="g290">
          <g
             id="g292" />
          <g
             id="g300">
            <g
               clip-path="url(#clipPath296)"
               opacity="0.0899963"
               id="g298" />
          </g>
        </g>
        <g
           id="g302">
          <g
             id="g304" />
          <g
             id="g312">
            <g
               clip-path="url(#clipPath308)"
               opacity="0.0899963"
               id="g310" />
          </g>
        </g>
        <g
           id="g314"
           transform="translate(2559.9883,2707.1426)">
          <path
             d="m 0,0 c 0,-82.557 -66.926,-149.482 -149.482,-149.482 -82.557,0 -149.483,66.925 -149.483,149.482 0,82.557 66.926,149.482 149.483,149.482 C -66.926,149.482 0,82.557 0,0"
             style="fill:#98c12a;fill-opacity:1;fill-rule:nonzero;stroke:none"
             id="path316" />
        </g>
        <g
           id="g318"
           transform="translate(1707.7158,2707.1426)">
          <path
             d="m 0,0 c 0,-82.557 -66.926,-149.482 -149.482,-149.482 -82.557,0 -149.483,66.925 -149.483,149.482 0,82.557 66.926,149.482 149.483,149.482 C -66.926,149.482 0,82.557 0,0"
             style="fill:#98c12a;fill-opacity:1;fill-rule:nonzero;stroke:none"
             id="path320" />
        </g>
        <g
           id="g322"
           transform="translate(2006.6807,2040.0498)">
          <path
             d="M 0,0 C -6.371,0 -12.759,0.103 -19.156,0.25 -25.551,0.103 -31.941,0 -38.311,0 Z"
             style="fill:#98c12a;fill-opacity:1;fill-rule:nonzero;stroke:none"
             id="path324" />
        </g>
        <g
           id="g326"
           transform="translate(2006.6807,2013.2769)">
          <path
             d="m 0,0 h -38.312 v 53.546 c 6.166,0 12.345,0.1 18.537,0.244 l 0.619,0.018 0.618,-0.018 C -12.345,53.646 -6.167,53.546 0,53.546 Z"
             style="fill:#98c12a;fill-opacity:1;fill-rule:nonzero;stroke:none"
             id="path328" />
        </g>
        <g
           id="g330"
           transform="translate(2535.0635,2388.0981)">
          <path
             d="m 0,0 c -249.881,437.292 -508.686,401.594 -508.686,401.594 h -77.705 c 0,0 -258.805,35.698 -508.686,-401.594 -93.428,-163.499 239.687,-340.653 547.538,-347.798 C -239.687,-340.653 93.428,-163.499 0,0"
             style="fill:#98c12a;fill-opacity:1;fill-rule:nonzero;stroke:none"
             id="path332" />
        </g>
        <g
           id="g334">
          <g
             id="g336" />
          <g
             id="g348">
            <g
               clip-path="url(#clipPath340)"
               opacity="0.0899963"
               id="g346">
              <g
                 transform="translate(1489.6606,2523.9829)"
                 id="g344">
                <path
                   d="m 0,0 c -33.202,-56.725 -46.855,-115.443 -36.713,-172.889 1.423,-8.064 3.396,-15.958 5.703,-23.741 -12.06,15.422 -21.259,31.249 -27.127,47.307 -60.681,-158.272 259.357,-323.012 556.001,-329.897 296.646,6.885 616.681,171.625 556.002,329.897 -47.248,-129.311 -309.692,-243.864 -556.002,-249.578 6.397,-0.149 12.785,-0.251 19.156,-0.251 h -38.311 c 6.37,0 12.76,0.102 19.155,0.251 -47.449,1.1 -95.484,6.276 -142.475,14.783 -177.493,74.209 -177.493,74.209 -141.65,270.259 0,0 115.87,366.182 383.599,330.485 0,0 -75.856,105.978 -301.195,3.905 -225.339,-102.073 6.329,10.267 6.329,10.267 z"
                   style="fill:#404040;fill-opacity:1;fill-rule:nonzero;stroke:none"
                   id="path342" />
              </g>
            </g>
          </g>
        </g>
        <g
           id="g350"
           transform="translate(1703.8311,2321.3433)">
          <path
             d="m 0,0 c 0.443,1.342 1.161,2.467 1.506,3.819 7.431,30.301 -7.877,64.393 -39.657,72.913 -23.003,6.804 -45.908,13.841 -69.025,20.285 -30.158,8.368 -66.614,-8.642 -74.523,-40.533 -8.625,-34.855 9.597,-60.967 40.459,-74.514 24.77,-10.817 58.201,-21.949 87.333,-19.308 13.658,0.498 27.133,5.046 37.52,13.55 7.574,5.561 13.223,12.788 16.315,23.172 0.058,0.215 0.008,0.4 0.072,0.616"
             style="fill:#ec7983;fill-opacity:1;fill-rule:nonzero;stroke:none"
             id="path352" />
        </g>
        <g
           id="g354"
           transform="translate(2317.6113,2321.3433)">
          <path
             d="M 0,0 C -0.444,1.342 -1.161,2.467 -1.507,3.819 -8.938,34.12 6.37,68.212 38.15,76.732 c 23.004,6.804 45.909,13.841 69.026,20.285 30.158,8.368 66.613,-8.642 74.522,-40.533 8.625,-34.855 -9.596,-60.967 -40.459,-74.514 -24.77,-10.817 -58.2,-21.949 -87.332,-19.308 -13.659,0.498 -27.134,5.046 -37.52,13.55 C 8.813,-18.227 3.164,-11 0.071,-0.616 0.014,-0.401 0.064,-0.216 0,0"
             style="fill:#ec7983;fill-opacity:1;fill-rule:nonzero;stroke:none"
             id="path356" />
        </g>
        <g
           id="g358">
          <g
             id="g360" />
          <g
             id="g380">
            <g
               clip-path="url(#clipPath364)"
               opacity="0.149994"
               id="g378">
              <g
                 transform="translate(1549.6514,2357.2437)"
                 id="g368">
                <path
                   d="M 0,0 C 8.732,9.213 16.814,19.043 24.166,29.391"
                   style="fill:none;stroke:#fffdfd;stroke-width:17.849;stroke-linecap:butt;stroke-linejoin:miter;stroke-miterlimit:10;stroke-dasharray:none;stroke-opacity:1"
                   id="path366" />
              </g>
              <g
                 transform="translate(1604.2661,2377.1548)"
                 id="g372">
                <path
                   d="M 0,0 -35.02,-43.976"
                   style="fill:none;stroke:#fffdfd;stroke-width:17.849;stroke-linecap:butt;stroke-linejoin:miter;stroke-miterlimit:10;stroke-dasharray:none;stroke-opacity:1"
                   id="path370" />
              </g>
              <g
                 transform="translate(1648.8877,2359.3062)"
                 id="g376">
                <path
                   d="M 0,0 -35.02,-43.976"
                   style="fill:none;stroke:#fffdfd;stroke-width:17.849;stroke-linecap:butt;stroke-linejoin:miter;stroke-miterlimit:10;stroke-dasharray:none;stroke-opacity:1"
                   id="path374" />
              </g>
            </g>
          </g>
        </g>
        <g
           id="g382">
          <g
             id="g384" />
          <g
             id="g404">
            <g
               clip-path="url(#clipPath388)"
               opacity="0.149994"
               id="g402">
              <g
                 transform="translate(2454.6836,2395.5591)"
                 id="g392">
                <path
                   d="M 0,0 C 7.352,-10.348 15.434,-20.178 24.166,-29.391"
                   style="fill:none;stroke:#fffdfd;stroke-width:17.849;stroke-linecap:butt;stroke-linejoin:miter;stroke-miterlimit:10;stroke-dasharray:none;stroke-opacity:1"
                   id="path390" />
              </g>
              <g
                 transform="translate(2424.2344,2386.0791)"
                 id="g396">
                <path
                   d="M 0,0 C 11.674,-14.659 23.347,-29.317 35.021,-43.976"
                   style="fill:none;stroke:#fffdfd;stroke-width:17.849;stroke-linecap:butt;stroke-linejoin:miter;stroke-miterlimit:10;stroke-dasharray:none;stroke-opacity:1"
                   id="path394" />
              </g>
              <g
                 transform="translate(2379.6133,2368.2305)"
                 id="g400">
                <path
                   d="M 0,0 C 11.673,-14.659 23.347,-29.317 35.02,-43.976"
                   style="fill:none;stroke:#fffdfd;stroke-width:17.849;stroke-linecap:butt;stroke-linejoin:miter;stroke-miterlimit:10;stroke-dasharray:none;stroke-opacity:1"
                   id="path398" />
              </g>
            </g>
          </g>
        </g>
        <g
           id="g406"
           transform="translate(1935.5864,2763.5381)">
          <path
             d="m 0,0 c -47.066,0 -262.439,-21.374 -472.353,-388.722 -17.343,-30.35 -16.641,-61.267 2.145,-94.52 62.339,-110.356 301.343,-207.922 522.146,-213.212 220.803,5.29 459.807,102.856 522.146,213.208 18.786,33.257 19.488,64.174 2.144,94.524 C 338.083,28.032 96.877,-0.021 94.446,-0.366 L 90.791,-0.619 9.43,-0.366 C 9.177,-0.335 5.917,0 0,0 M 51.938,-750.017 51.319,-750 c -241.553,5.604 -496.423,113.454 -568.149,240.421 -28.054,49.659 -28.752,100.638 -2.013,147.421 C -271.882,70.035 -13.304,55.851 14.628,52.927 h 74.62 c 27.906,2.946 286.484,17.152 533.471,-415.085 26.739,-46.783 26.041,-97.762 -2.012,-147.425 C 548.981,-636.546 294.11,-744.396 52.557,-750 Z"
             style="fill:#98c12a;fill-opacity:1;fill-rule:nonzero;stroke:none"
             id="path408" />
        </g>
        <g
           id="g410"
           transform="translate(2537.6768,2682.6006)">
          <path
             d="m 0,0 c 0,-69.002 -55.938,-124.94 -124.94,-124.94 -69.002,0 -124.941,55.938 -124.941,124.94 0,69.003 55.939,124.94 124.941,124.94 C -55.938,124.94 0,69.003 0,0"
             style="fill:#ffffff;fill-opacity:1;fill-rule:nonzero;stroke:none"
             id="path412" />
        </g>
        <g
           id="g414"
           transform="translate(1698.7915,2682.6006)">
          <path
             d="m 0,0 c 0,-69.002 -55.938,-124.94 -124.94,-124.94 -69.003,0 -124.941,55.938 -124.941,124.94 0,69.003 55.938,124.94 124.941,124.94 C -55.938,124.94 0,69.003 0,0"
             style="fill:#ffffff;fill-opacity:1;fill-rule:nonzero;stroke:none"
             id="path416" />
        </g>
        <g
           id="g418">
          <g
             id="g420" />
          <g
             id="g432">
            <g
               clip-path="url(#clipPath424)"
               opacity="0.149994"
               id="g430">
              <g
                 transform="translate(1678.4219,2641.666)"
                 id="g428">
                <path
                   d="m 0,0 c -42.483,-59.436 -125.228,-73.194 -184.659,-30.715 -27.115,19.382 -44.723,47.14 -51.822,77.246 0.597,-40.629 19.808,-80.462 55.367,-105.879 59.435,-42.483 142.176,-28.72 184.659,30.715 C 26.646,3.687 33.115,42.903 24.651,78.788 25.054,51.509 17.066,23.875 0,0"
                   style="fill:#000000;fill-opacity:1;fill-rule:nonzero;stroke:none"
                   id="path426" />
              </g>
            </g>
          </g>
        </g>
        <g
           id="g434">
          <g
             id="g436" />
          <g
             id="g448">
            <g
               clip-path="url(#clipPath440)"
               opacity="0.149994"
               id="g446">
              <g
                 transform="translate(2312.5107,2636.4048)"
                 id="g444">
                <path
                   d="M 0,0 C 45.479,-57.176 128.821,-66.668 185.993,-21.192 212.076,-0.445 228.236,28.181 233.78,58.612 235.271,18.006 218.13,-22.76 183.923,-49.97 126.747,-95.449 43.409,-85.953 -2.07,-28.777 -26.801,2.314 -35.274,41.146 -28.664,77.418 -27.665,50.154 -18.269,22.967 0,0"
                   style="fill:#000000;fill-opacity:1;fill-rule:nonzero;stroke:none"
                   id="path442" />
              </g>
            </g>
          </g>
        </g>
        <g
           id="g450"
           transform="translate(2475.2031,2674.4385)">
          <path
             d="m 0,0 c 0.368,-34.5 -31.296,-62.808 -70.724,-63.229 -39.427,-0.421 -71.689,27.205 -72.057,61.705 -0.368,34.499 31.296,62.808 70.723,63.229 C -32.63,62.125 -0.368,34.5 0,0"
             style="fill:#000000;fill-opacity:1;fill-rule:nonzero;stroke:none"
             id="path452" />
        </g>
        <g
           id="g454"
           transform="translate(2475.2031,2674.4385)">
          <path
             d="m 0,0 c 0.368,-34.5 -31.296,-62.808 -70.724,-63.229 -39.427,-0.421 -71.689,27.205 -72.057,61.705 -0.368,34.499 31.296,62.808 70.723,63.229 C -32.63,62.125 -0.368,34.5 0,0 Z"
             style="fill:none;stroke:#000000;stroke-width:12.31;stroke-linecap:butt;stroke-linejoin:miter;stroke-miterlimit:10;stroke-dasharray:none;stroke-opacity:1"
             id="path456" />
        </g>
        <g
           id="g458"
           transform="translate(2430.2979,2700.7334)">
          <path
             d="m 0,0 c 0.105,-9.857 -7.8,-17.933 -17.657,-18.038 -9.857,-0.105 -17.933,7.8 -18.038,17.657 -0.106,9.857 7.8,17.933 17.657,18.038 C -8.181,17.763 -0.105,9.857 0,0"
             style="fill:#ffffff;fill-opacity:1;fill-rule:nonzero;stroke:none"
             id="path460" />
        </g>
        <g
           id="g462"
           transform="translate(1645.2417,2665.5142)">
          <path
             d="m 0,0 c 0.368,-34.5 -31.296,-62.808 -70.724,-63.229 -39.427,-0.421 -71.689,27.205 -72.057,61.705 -0.368,34.499 31.296,62.808 70.723,63.229 C -32.63,62.125 -0.369,34.5 0,0"
             style="fill:#000000;fill-opacity:1;fill-rule:nonzero;stroke:none"
             id="path464" />
        </g>
        <g
           id="g466"
           transform="translate(1645.2417,2665.5142)">
          <path
             d="m 0,0 c 0.368,-34.5 -31.296,-62.808 -70.724,-63.229 -39.427,-0.421 -71.689,27.205 -72.057,61.705 -0.368,34.499 31.296,62.808 70.723,63.229 C -32.63,62.125 -0.369,34.5 0,0 Z"
             style="fill:none;stroke:#000000;stroke-width:12.31;stroke-linecap:butt;stroke-linejoin:miter;stroke-miterlimit:10;stroke-dasharray:none;stroke-opacity:1"
             id="path468" />
        </g>
        <g
           id="g470"
           transform="translate(1600.3364,2691.8091)">
          <path
             d="m 0,0 c 0.105,-9.857 -7.8,-17.933 -17.657,-18.038 -9.857,-0.105 -17.933,7.8 -18.038,17.657 -0.105,9.857 7.8,17.933 17.657,18.038 C -8.181,17.763 -0.105,9.857 0,0"
             style="fill:#ffffff;fill-opacity:1;fill-rule:nonzero;stroke:none"
             id="path472" />
        </g>
        <g
           id="g474"
           transform="translate(1627.7954,2333.6758)">
          <path
             d="M 0,0 C 0,0 305.06,-377.312 770.678,0"
             style="fill:none;stroke:#000000;stroke-width:24.084;stroke-linecap:butt;stroke-linejoin:miter;stroke-miterlimit:10;stroke-dasharray:none;stroke-opacity:1"
             id="path476" />
        </g>
        <g
           id="g478"
           transform="translate(2398.4736,2333.6758)">
          <path
             d="M 0,0 V 32.112"
             style="fill:none;stroke:#000000;stroke-width:24.084;stroke-linecap:butt;stroke-linejoin:miter;stroke-miterlimit:10;stroke-dasharray:none;stroke-opacity:1"
             id="path480" />
        </g>
        <g
           id="g482"
           transform="translate(2398.4736,2333.6758)">
          <path
             d="M 0,0 H 32.111"
             style="fill:none;stroke:#000000;stroke-width:24.084;stroke-linecap:butt;stroke-linejoin:miter;stroke-miterlimit:10;stroke-dasharray:none;stroke-opacity:1"
             id="path484" />
        </g>
        <g
           id="g486"
           transform="translate(1627.7954,2333.6758)">
          <path
             d="M 0,0 V 32.112"
             style="fill:none;stroke:#000000;stroke-width:24.084;stroke-linecap:butt;stroke-linejoin:miter;stroke-miterlimit:10;stroke-dasharray:none;stroke-opacity:1"
             id="path488" />
        </g>
        <g
           id="g490"
           transform="translate(1627.7954,2333.6758)">
          <path
             d="M 0,0 H -32.112"
             style="fill:none;stroke:#000000;stroke-width:24.084;stroke-linecap:butt;stroke-linejoin:miter;stroke-miterlimit:10;stroke-dasharray:none;stroke-opacity:1"
             id="path492" />
        </g>
      </g>
    </g>
  </g>
</svg>
